HIERARCHY
ROOT hip
{
	OFFSET 0.000000 0.000000 0.000000 
	CHANNELS 6 Xposition Yposition Zposition Xrotation Zrotation Yrotation
	JOINT abdomen
	{
		OFFSET 0.000000 3.402643 0.000000 
		CHANNELS 3 Xrotation Zrotation Yrotation
		JOINT chest
		{
			OFFSET 0.000000 8.438565 -0.680529 
			CHANNELS 3 Xrotation Zrotation Yrotation
			JOINT neck
			{
				OFFSET 0.000000 10.207942 -0.272212 
				CHANNELS 3 Xrotation Zrotation Yrotation
				JOINT head
				{
					OFFSET 0.000000 3.130431 0.000000 
					CHANNELS 3 Xrotation Zrotation Yrotation
					End Site
					{
						OFFSET 0.000000 3.130435 0.000000 
					}
				}
			}
			JOINT lCollar
			{
				OFFSET 3.470700 6.669187 -0.816635 
				CHANNELS 3 Yrotation Zrotation Xrotation
				JOINT lShldr
				{
					OFFSET 3.198488 0.000000 0.000000 
					CHANNELS 3 Zrotation Yrotation Xrotation
					JOINT lForeArm
					{
						OFFSET 10.139888 0.000000 0.000000 
						CHANNELS 3 Yrotation Zrotation Xrotation
						JOINT lHand
						{
							OFFSET 8.370511 0.000000 0.000000 
							CHANNELS 3 Zrotation Yrotation Xrotation
							End Site
							{
								OFFSET 4.083176 0.000000 0.000000 
							}
						}
					}
				}
			}
			JOINT rCollar
			{
				OFFSET -3.470700 6.669187 -0.816635 
				CHANNELS 3 Yrotation Zrotation Xrotation
				JOINT rShldr
				{
					OFFSET -3.198488 0.000000 0.000000 
					CHANNELS 3 Zrotation Yrotation Xrotation
					JOINT rForeArm
					{
						OFFSET -10.139888 0.000000 0.000000 
						CHANNELS 3 Yrotation Zrotation Xrotation
						JOINT rHand
						{
							OFFSET -8.370511 0.000000 0.000000 
							CHANNELS 3 Zrotation Yrotation Xrotation
							End Site
							{
								OFFSET -4.083176 0.000000 0.000000 
							}
						}
					}
				}
			}
		}
	}
	JOINT lThigh
	{
		OFFSET 5.308129 -1.633274 1.361059 
		CHANNELS 3 Xrotation Zrotation Yrotation
		JOINT lShin
		{
			OFFSET -2.041588 -20.007561 0.000000 
			CHANNELS 3 Xrotation Zrotation Yrotation
			JOINT lFoot
			{
				OFFSET 0.000000 -19.190928 -1.224953 
				CHANNELS 3 Xrotation Yrotation Zrotation
				End Site
				{
					OFFSET 0.000000 -2.449906 4.627600 
				}
			}
		}
	}
	JOINT rThigh
	{
		OFFSET -5.308129 -1.633274 1.361059 
		CHANNELS 3 Xrotation Zrotation Yrotation
		JOINT rShin
		{
			OFFSET 2.041588 -20.007561 0.000000 
			CHANNELS 3 Xrotation Zrotation Yrotation
			JOINT rFoot
			{
				OFFSET 0.000000 -19.190928 -1.224953 
				CHANNELS 3 Xrotation Yrotation Zrotation
				End Site
				{
					OFFSET 0.000000 -2.449906 4.627600 
				}
			}
		}
	}
}
MOTION
Frames: 8
Frame Time: 0.033333
-2.028928 48.567951 -10.037142 -0.342244 -2.929636 -3.195421 0.000000 0.000000 0.000000 24.834387 -5.169866 3.265502 -16.521690 12.266671 -12.342439 -7.811154 -7.769849 -1.323916 -3.519355 9.157742 6.311733 -86.477432 -15.525356 -4.214710 -8.891885 1.363430 18.941154 11.948236 0.103858 -9.010720 3.090466 -14.082293 8.028685 95.344986 17.974403 1.001302 15.355786 -10.481269 53.401318 -31.992876 -25.096088 -5.786589 -17.605316 19.576464 11.930280 44.154991 -0.509091 -24.420124 0.386669 0.100844 -1.704147 -4.302406 -2.388377 -13.534827 24.557838 0.658308 3.091171 -16.231022 0.783348 -4.514350 
-2.022921 48.571785 -9.804305 -0.605984 -2.363149 -4.193784 0.000000 0.000000 0.000000 22.484833 -7.623290 4.581045 -18.661449 12.269598 -13.874883 -5.800031 -8.071751 -2.467256 -3.519355 9.157742 6.311733 -85.848549 -12.653563 -4.354800 -8.474173 0.767511 20.125828 12.659621 2.098929 -8.987607 3.090466 -14.082293 8.028685 94.940651 18.517845 5.908636 18.168587 -13.923702 49.523029 -32.058971 -24.896540 -5.823728 -18.483049 20.023827 13.129861 44.169071 -1.139051 -23.817774 0.314152 0.130149 -2.350787 -3.823755 -3.070078 -13.911636 24.535192 0.644528 3.982554 -16.507576 0.934273 -5.195690 
-1.987812 48.601643 -9.606669 -0.605849 -2.031137 -5.779321 0.000000 0.000000 0.000000 17.191851 -9.795504 6.663648 -14.999973 13.525627 -14.884224 -7.293159 -8.138026 -3.073361 -3.519355 9.157742 6.311733 -85.794762 -8.295334 -5.074459 -8.502802 0.929445 21.465771 10.598596 1.145968 -8.833100 3.090466 -14.082293 8.028685 93.565742 18.486465 13.330360 21.144920 -17.571192 46.033813 -33.159676 -25.088350 -5.627362 -19.011808 20.768009 14.509723 42.378735 -1.904207 -23.378401 0.220754 0.181330 -3.208767 -3.611214 -3.453624 -13.850286 24.219484 0.518047 5.179383 -16.198185 1.051003 -5.934092 
-1.879983 48.642235 -9.463119 -0.175892 -2.031240 -7.894161 0.000000 0.000000 0.000000 10.788917 -10.796732 9.556770 -7.703368 16.297848 -15.386905 -12.176081 -8.033151 -2.971578 -3.519355 9.157742 6.311733 -86.008682 -3.580083 -4.529422 -8.801204 1.420358 22.035618 13.195622 2.445142 -9.018732 3.090466 -14.082293 8.028685 89.866287 19.252275 22.881081 23.220030 -19.917782 40.137093 -33.044167 -25.194492 -5.624926 -19.743055 21.703266 15.373658 39.407085 -2.337677 -21.200167 0.848620 0.254910 -5.102461 -3.875008 -3.658922 -13.748930 23.753469 0.551245 6.994314 -15.479253 1.168317 -6.710138 
-1.727535 48.696598 -9.250722 -0.029317 -2.099609 -10.370020 0.000000 0.000000 0.000000 5.757085 -10.825335 12.635039 1.175767 19.671978 -14.860842 -19.183128 -8.040689 -2.054550 -3.519355 9.157742 6.311733 -86.266571 0.432018 -2.003150 -9.259676 1.923054 20.207067 14.529508 2.875263 -9.114818 3.090466 -14.082293 8.028685 83.643661 21.416996 35.423317 24.624891 -21.240744 31.279257 -30.978331 -25.274986 -5.869188 -19.617922 22.575418 15.934078 35.202728 -2.617595 -19.559210 1.848746 0.311064 -7.050022 -3.739468 -3.826668 -13.604042 23.154501 0.478367 9.036764 -14.762084 1.259148 -7.476029 
-1.490963 48.816872 -9.017223 -0.048856 -1.943359 -12.049126 0.000000 0.000000 0.000000 3.285100 -11.183230 14.331748 5.769703 23.921293 -14.348122 -23.132044 -10.248721 0.526312 -3.519355 9.157742 6.311733 -86.171036 2.927196 0.637651 -9.568924 2.156486 18.409842 10.586895 1.676423 -8.812469 3.090466 -14.082293 8.028685 76.429489 25.292690 46.423595 25.461483 -21.590233 20.984379 -25.566336 -25.133530 -6.614366 -19.567095 22.688671 15.693700 30.355751 -2.707275 -19.168217 2.627535 0.291535 -8.448663 -3.073108 -4.299105 -13.751308 21.790764 0.528108 10.602451 -13.748643 1.308258 -8.015436 
-1.165012 48.924473 -8.640930 -0.400543 -1.581993 -13.738944 0.000000 0.000000 0.000000 3.335772 -11.260674 15.431096 5.606442 22.136009 -13.126026 -22.184868 -8.977194 0.388898 -3.519355 9.157742 6.311733 -86.323303 4.081173 2.048557 -9.530610 2.076899 19.801926 9.743856 -0.485787 -8.790815 3.090466 -14.082293 8.028685 68.514297 30.595268 53.404774 25.121664 -20.782442 14.354180 -18.832731 -22.019047 -7.748129 -18.473671 22.395973 15.662531 24.836367 -2.906535 -19.433893 3.056716 0.300225 -8.961936 -2.059369 -5.304688 -14.278632 20.602583 0.625449 12.786121 -12.872488 1.352170 -8.687800 
-0.889685 48.992031 -8.265961 -0.234451 -1.455066 -14.808502 0.000000 0.000000 0.000000 4.478203 -11.713173 16.803078 4.457102 21.676962 -12.720446 -21.232779 -8.653600 0.625190 -3.519355 9.157742 6.311733 -85.541977 3.282420 2.497973 -9.032790 1.301970 20.864086 7.913693 -1.215703 -8.586120 3.090466 -14.082293 8.028685 61.604576 36.086380 53.873680 22.787323 -17.636232 9.532683 -14.934810 -20.256557 -8.270763 -18.133665 22.429287 15.463387 19.929150 -2.903430 -19.724049 3.473435 0.276694 -9.578084 -1.630688 -5.816422 -14.565760 19.779217 0.606607 13.760109 -12.167312 1.374671 -9.131809 
